<svg width="150" height="189" viewBox="0 0 150 189" fill="none" xmlns="http://www.w3.org/2000/svg">
<path d="M150 75C150 116.421 102.75 159.75 75 188.25C54 167.25 0 116.421 0 75C0 33.5786 33.5786 0 75 0C116.421 0 150 33.5786 150 75Z" fill="#33A9FF"/>
<circle cx="76" cy="70" r="50" fill="white"/>
<path d="M64.6431 53.56H69.9631V80.8H64.6431V53.56ZM68.4431 63.96H74.8831V68.32H68.4431V63.96ZM46.0831 85.68H71.2831V89.92H46.0831V85.68ZM46.0831 78.04H51.4031V86.6H46.0831V78.04ZM41.8831 56.16H47.1631V61.48H54.4031V56.16H59.6831V74.96H41.8831V56.16ZM47.1631 65.52V70.8H54.4031V65.52H47.1631ZM77.64 82.08H111.16V86.44H77.64V82.08ZM91.64 73.72H96.96V84.04H91.64V73.72ZM80.2 56.56H108.4V60.8H80.2V56.56ZM80.36 71.32H108.28V75.48H80.36V71.32ZM85.24 60.08H90.56V71.8H85.24V60.08ZM98.08 60.08H103.36V71.8H98.08V60.08Z" fill="black"/>
</svg>
