<svg width="150" height="189" viewBox="0 0 150 189" fill="none" xmlns="http://www.w3.org/2000/svg">
<path d="M150 75C150 116.421 102.75 159.75 75 188.25C54 167.25 0 116.421 0 75C0 33.5786 33.5786 0 75 0C116.421 0 150 33.5786 150 75Z" fill="#33A9FF"/>
<circle cx="76" cy="70" r="50" fill="white"/>
<path d="M64.6431 53.52H69.9631V74.96H64.6431V53.52ZM68.4831 62.16H74.8831V66.52H68.4831V62.16ZM54.0431 55.92H59.7631C59.7631 65.88 53.6031 72.8 42.6831 75.84L40.5231 71.6C49.4431 69.16 54.0431 64.32 54.0431 58.6V55.92ZM42.2831 55.92H57.2831V60.2H42.2831V55.92ZM57.9631 75.44C65.4431 75.44 70.3631 78.36 70.3631 83C70.3631 87.68 65.4431 90.6 57.9631 90.6C50.4831 90.6 45.4831 87.68 45.4831 83C45.4831 78.36 50.4831 75.44 57.9631 75.44ZM57.9631 79.56C53.4431 79.56 50.7631 80.76 50.7631 83C50.7631 85.28 53.4431 86.48 57.9631 86.48C62.4831 86.48 65.1631 85.28 65.1631 83C65.1631 80.76 62.4831 79.56 57.9631 79.56ZM96.28 65.08H106.04V69.36H96.28V65.08ZM86.2 56.36H90.52V61.72C90.52 71.04 87.36 79.64 80.4 83.12L77.08 78.84C83.4 75.92 86.2 68.76 86.2 61.72V56.36ZM87.32 56.36H91.56V61.72C91.56 68.76 94.24 75.52 100.36 78.24L97.2 82.48C90.24 79.12 87.32 70.96 87.32 61.72V56.36ZM103.4 53.48H108.68V90.64H103.4V53.48Z" fill="black"/>
</svg>
