<svg width="150" height="189" viewBox="0 0 150 189" fill="none" xmlns="http://www.w3.org/2000/svg">
<path d="M150 75C150 116.421 102.75 159.75 75 188.25C54 167.25 0 116.421 0 75C0 33.5786 33.5786 0 75 0C116.421 0 150 33.5786 150 75Z" fill="#33A9FF"/>
<circle cx="76" cy="70" r="50" fill="white"/>
<path d="M33.9358 58.816H46.6078V62.208H33.9358V58.816ZM37.5838 65.44H41.8078V72.768H37.5838V65.44ZM44.9438 58.816H49.1358V60.736C49.1358 62.72 49.1358 65.312 48.4638 68.544L44.3358 68.224C44.9438 65.056 44.9438 62.72 44.9438 60.736V58.816ZM52.0158 57.216H56.3038V75.264H52.0158V57.216ZM54.6078 64.48H59.8558V68H54.6078V64.48ZM32.6238 74.08L32.2078 70.688C37.5198 70.688 44.4958 70.624 50.4158 69.888L50.6718 72.896C44.5918 73.952 37.8718 74.08 32.6238 74.08ZM46.2878 75.616C52.5918 75.616 56.5598 77.728 56.5598 81.184C56.5598 84.736 52.5918 86.816 46.2878 86.816C39.9838 86.816 36.0477 84.736 36.0477 81.184C36.0477 77.728 39.9838 75.616 46.2878 75.616ZM46.2878 78.88C42.4798 78.88 40.3678 79.648 40.3678 81.184C40.3678 82.784 42.4798 83.52 46.2878 83.52C50.1278 83.52 52.1758 82.784 52.1758 81.184C52.1758 79.648 50.1278 78.88 46.2878 78.88ZM84.1733 68.416H89.3893V71.904H84.1733V68.416ZM81.0053 57.184H85.2933V86.816H81.0053V57.184ZM62.9573 60.032H67.2133V78.432H62.9573V60.032ZM62.9573 76.064H65.5173C69.7413 76.064 74.3173 75.776 79.0853 74.816L79.5333 78.304C74.6373 79.328 69.8693 79.584 65.5173 79.584H62.9573V76.064ZM94.5708 58.144H115.243V66.976H98.9548V71.488H94.6348V63.808H110.923V61.536H94.5708V58.144ZM94.6348 69.408H115.979V72.768H94.6348V69.408ZM91.4988 74.944H118.347V78.368H91.4988V74.944ZM102.731 76.192H106.987V86.912H102.731V76.192Z" fill="black"/>
</svg>
