<svg width="150" height="189" viewBox="0 0 150 189" fill="none" xmlns="http://www.w3.org/2000/svg">
<path d="M150 75C150 116.421 102.75 159.75 75 188.25C54 167.25 0 116.421 0 75C0 33.5786 33.5786 0 75 0C116.421 0 150 33.5786 150 75Z" fill="#33A9FF"/>
<circle cx="76" cy="70" r="50" fill="white"/>
<path d="M66.2031 53.48H71.5631V90.64H66.2031V53.48ZM51.6031 56.08C57.2031 56.08 61.3231 61.2 61.3231 69.28C61.3231 77.44 57.2031 82.56 51.6031 82.56C46.0031 82.56 41.8831 77.44 41.8831 69.28C41.8831 61.2 46.0031 56.08 51.6031 56.08ZM51.6031 60.92C48.8431 60.92 46.9631 63.84 46.9631 69.28C46.9631 74.8 48.8431 77.76 51.6031 77.76C54.3631 77.76 56.2031 74.8 56.2031 69.28C56.2031 63.84 54.3631 60.92 51.6031 60.92ZM77.6 73.44H111.08V77.68H77.6V73.44ZM91.68 69.44H96.96V74.88H91.68V69.44ZM91.68 53.64H96.96V59.12H91.68V53.64ZM91.36 59.56H96.04V60.32C96.04 66.16 90.72 70.44 80.68 71.28L79 67.24C87.84 66.56 91.36 63.4 91.36 60.32V59.56ZM92.6 59.56H97.28V60.32C97.28 63.4 100.76 66.56 109.64 67.24L107.96 71.28C97.92 70.44 92.6 66.16 92.6 60.32V59.56ZM80.8 57.16H107.88V61.28H80.8V57.16ZM81.64 85.68H107.32V89.92H81.64V85.68ZM81.64 79.76H86.96V87.52H81.64V79.76Z" fill="black"/>
</svg>
