<svg width="150" height="189" viewBox="0 0 150 189" fill="none" xmlns="http://www.w3.org/2000/svg">
<path d="M150 75C150 116.421 102.75 159.75 75 188.25C54 167.25 0 116.421 0 75C0 33.5786 33.5786 0 75 0C116.421 0 150 33.5786 150 75Z" fill="#33A9FF"/>
<circle cx="76" cy="70" r="50" fill="white"/>
<path d="M48.9631 57.08H53.3231V59.6C53.3231 66.52 50.0031 72.84 42.8431 75.12L40.1631 70.92C46.3631 68.96 48.9631 64.2 48.9631 59.6V57.08ZM50.0031 57.08H54.3631V59.56C54.3631 63.88 56.8831 68.24 62.8831 70.12L60.3231 74.32C53.2831 72.16 50.0031 66.12 50.0031 59.56V57.08ZM41.5631 55.68H61.6031V59.88H41.5631V55.68ZM64.6431 53.52H69.9631V74.96H64.6431V53.52ZM68.4831 61.88H74.8831V66.2H68.4831V61.88ZM45.8831 76.44H69.9631V90.16H45.8831V76.44ZM64.7631 80.6H51.1231V85.96H64.7631V80.6ZM103.04 53.52H108.4V72.24H103.04V53.52ZM83.68 73.88H108.4V83.92H88.96V87.64H83.76V80.08H103.12V77.92H83.68V73.88ZM83.76 86.2H109.32V90.32H83.76V86.2ZM86.28 54.36H90.68V57.16C90.68 64 87.24 70.2 80 72.4L77.44 68.2C83.64 66.32 86.28 61.68 86.28 57.16V54.36ZM87.36 54.36H91.72V57.16C91.72 61.56 94.32 65.88 100.36 67.6L97.8 71.72C90.68 69.64 87.36 63.84 87.36 57.16V54.36Z" fill="black"/>
</svg>
