<svg width="150" height="189" viewBox="0 0 150 189" fill="none" xmlns="http://www.w3.org/2000/svg">
<path d="M150 75C150 116.421 102.75 159.75 75 188.25C54 167.25 0 116.421 0 75C0 33.5786 33.5786 0 75 0C116.421 0 150 33.5786 150 75Z" fill="#33A9FF"/>
<circle cx="76" cy="70" r="50" fill="white"/>
<path d="M41.8831 56.16H59.5231V72.76H41.8831V56.16ZM54.2831 60.36H47.1231V68.56H54.2831V60.36ZM64.6431 53.52H69.9631V75H64.6431V53.52ZM68.4831 61.8H74.8831V66.16H68.4831V61.8ZM57.8831 75.96C65.5231 75.96 70.4031 78.72 70.4031 83.28C70.4031 87.88 65.5231 90.6 57.8831 90.6C50.2031 90.6 45.3231 87.88 45.3231 83.28C45.3231 78.72 50.2031 75.96 57.8831 75.96ZM57.8831 80.16C53.1631 80.16 50.6031 81.16 50.6031 83.28C50.6031 85.44 53.1631 86.44 57.8831 86.44C62.6031 86.44 65.1231 85.44 65.1231 83.28C65.1231 81.16 62.6031 80.16 57.8831 80.16ZM87.24 72.52H92.56V80.64H87.24V72.52ZM103.48 53.52H108.8V81.56H103.48V53.52ZM82.12 85.68H109.6V89.92H82.12V85.68ZM82.12 78.92H87.44V86.8H82.12V78.92ZM78.12 74.12L77.48 69.88C84.24 69.88 93.28 69.8 101.04 68.8L101.36 72.6C93.48 73.92 84.8 74.12 78.12 74.12ZM96.48 75.04H104.64V78.68H96.48V75.04ZM89.4 54.8C94.8 54.8 98.6 57.48 98.6 61.4C98.6 65.36 94.8 68 89.4 68C83.96 68 80.16 65.36 80.16 61.4C80.16 57.48 83.96 54.8 89.4 54.8ZM89.4 58.68C86.92 58.68 85.2 59.6 85.2 61.4C85.2 63.2 86.92 64.12 89.4 64.12C91.84 64.12 93.56 63.2 93.56 61.4C93.56 59.6 91.84 58.68 89.4 58.68Z" fill="black"/>
</svg>
