<svg width="150" height="189" viewBox="0 0 150 189" fill="none" xmlns="http://www.w3.org/2000/svg">
<path d="M150 75C150 116.421 102.75 159.75 75 188.25C54 167.25 0 116.421 0 75C0 33.5786 33.5786 0 75 0C116.421 0 150 33.5786 150 75Z" fill="#33A9FF"/>
<circle cx="76" cy="70" r="50" fill="white"/>
<path d="M42.2831 55.96H47.6031V71.44H42.2831V55.96ZM42.2831 69.76H45.4431C50.4431 69.76 55.9631 69.44 61.8031 68.28L62.4031 72.56C56.4031 73.8 50.6831 74.12 45.4431 74.12H42.2831V69.76ZM64.6431 53.56H69.9631V80.16H64.6431V53.56ZM68.4431 63.88H74.8831V68.36H68.4431V63.88ZM46.1231 85.68H71.1631V89.92H46.1231V85.68ZM46.1231 77.68H51.4431V88.04H46.1231V77.68ZM86.52 59.36H90.76V63.52C90.76 72.08 87.28 80.44 80.32 83.6L77.32 79.4C83.52 76.64 86.52 69.8 86.52 63.52V59.36ZM87.72 59.36H91.92V63.52C91.92 69.52 94.88 75.92 101.08 78.48L98.2 82.68C91.16 79.64 87.72 71.76 87.72 63.52V59.36ZM78.8 57.08H99.56V61.44H78.8V57.08ZM103 53.52H108.36V90.56H103V53.52Z" fill="black"/>
</svg>
