<svg width="150" height="189" viewBox="0 0 150 189" fill="none" xmlns="http://www.w3.org/2000/svg">
<path d="M150 75C150 116.421 102.75 159.75 75 188.25C54 167.25 0 116.421 0 75C0 33.5786 33.5786 0 75 0C116.421 0 150 33.5786 150 75Z" fill="#33A9FF"/>
<circle cx="76" cy="70" r="50" fill="white"/>
<path d="M40.8031 70.28H74.2831V74.52H40.8031V70.28ZM54.8831 72.56H60.2031V79.88H54.8831V72.56ZM44.4031 78.2H70.0431V90.56H64.6831V82.4H44.4031V78.2ZM58.6031 63.64H71.3631V67.84H58.6031V63.64ZM58.6031 54.92H71.2031V59.12H64.0431V65.32H58.6031V54.92ZM43.9231 54.92H56.6431V59.12H49.3631V65.32H43.9231V54.92ZM43.9231 63.64H46.2031C50.3631 63.64 53.3631 63.56 56.8831 62.88L57.3231 67.04C53.6431 67.76 50.5231 67.84 46.2031 67.84H43.9231V63.64ZM103.28 53.52H108.6V74.68H103.28V53.52ZM83.92 76.28H108.6V90.16H83.92V76.28ZM103.4 80.44H89.16V85.96H103.4V80.44ZM96.52 59.96H104.04V64.24H96.52V59.96ZM86.08 55.2H90.4V58.72C90.4 65.8 87.16 71.96 80.08 74.28L77.36 70.12C83.52 68.16 86.08 63.52 86.08 58.72V55.2ZM87.12 55.2H91.44V59.04C91.44 63.44 93.92 67.72 99.72 69.52L97.04 73.64C90.24 71.44 87.12 65.68 87.12 59.04V55.2Z" fill="black"/>
</svg>
