<svg width="150" height="189" viewBox="0 0 150 189" fill="none" xmlns="http://www.w3.org/2000/svg">
<path d="M150 75C150 116.421 102.75 159.75 75 188.25C54 167.25 0 116.421 0 75C0 33.5786 33.5786 0 75 0C116.421 0 150 33.5786 150 75Z" fill="#33A9FF"/>
<circle cx="76" cy="70" r="50" fill="white"/>
<path d="M68.3231 58.08H74.7231V62.4H68.3231V58.08ZM68.3231 66.12H74.7231V70.44H68.3231V66.12ZM51.1231 55.52C56.8431 55.52 61.2031 59.28 61.2031 64.52C61.2031 69.72 56.8431 73.48 51.1231 73.48C45.4031 73.48 41.0431 69.72 41.0431 64.52C41.0431 59.28 45.4031 55.52 51.1231 55.52ZM51.1231 59.96C48.3231 59.96 46.2431 61.68 46.2431 64.52C46.2431 67.4 48.3231 69.04 51.1231 69.04C53.9231 69.04 56.0031 67.4 56.0031 64.52C56.0031 61.68 53.9231 59.96 51.1231 59.96ZM64.6431 53.52H69.9631V75.12H64.6431V53.52ZM57.8831 75.92C65.5231 75.92 70.4031 78.68 70.4031 83.24C70.4031 87.84 65.5231 90.56 57.8831 90.56C50.2031 90.56 45.3231 87.84 45.3231 83.24C45.3231 78.68 50.2031 75.92 57.8831 75.92ZM57.8831 80.12C53.1631 80.12 50.6031 81.12 50.6031 83.24C50.6031 85.4 53.1631 86.4 57.8831 86.4C62.6031 86.4 65.1231 85.4 65.1231 83.24C65.1231 81.12 62.6031 80.12 57.8831 80.12ZM86.16 75.44H91.48V81.44H86.16V75.44ZM101.72 53.52H107.08V90.56H101.72V53.52ZM105.2 68.56H111.72V72.96H105.2V68.56ZM77.84 84.4L77.2 80.12C83.6 80.12 92.4 80.08 99.88 79.04L100.28 82.88C92.48 84.4 84.08 84.4 77.84 84.4ZM77.88 57.6H99.68V61.76H77.88V57.6ZM88.84 63.24C94.12 63.24 97.88 66.04 97.88 70.16C97.88 74.32 94.12 77.12 88.84 77.12C83.52 77.12 79.8 74.32 79.8 70.16C79.8 66.04 83.52 63.24 88.84 63.24ZM88.84 67.24C86.4 67.24 84.84 68.28 84.84 70.16C84.84 72.08 86.4 73.12 88.84 73.12C91.24 73.12 92.84 72.08 92.84 70.16C92.84 68.28 91.24 67.24 88.84 67.24ZM86.16 53.72H91.48V60.72H86.16V53.72Z" fill="black"/>
</svg>
