<svg width="150" height="189" viewBox="0 0 150 189" fill="none" xmlns="http://www.w3.org/2000/svg">
<path d="M150 75C150 116.421 102.75 159.75 75 188.25C54 167.25 0 116.421 0 75C0 33.5786 33.5786 0 75 0C116.421 0 150 33.5786 150 75Z" fill="#33A9FF"/>
<circle cx="76" cy="70" r="50" fill="white"/>
<path d="M45.8718 63.264H53.9358V66.688H45.8718V63.264ZM45.8718 72.448H53.9358V75.872H45.8718V72.448ZM40.7517 59.264C45.1678 59.264 48.3998 63.36 48.3998 69.824C48.3998 76.352 45.1678 80.448 40.7517 80.448C36.3038 80.448 33.1038 76.352 33.1038 69.824C33.1038 63.36 36.3038 59.264 40.7517 59.264ZM40.7517 63.136C38.6078 63.136 37.1358 65.472 37.1358 69.824C37.1358 74.24 38.6078 76.608 40.7517 76.608C42.9278 76.608 44.3678 74.24 44.3678 69.824C44.3678 65.472 42.9278 63.136 40.7517 63.136ZM53.2638 57.184H57.4878V86.912H53.2638V57.184ZM71.5973 59.168C76.2693 59.168 79.7573 62.208 79.7573 66.464C79.7573 70.752 76.2693 73.792 71.5973 73.792C66.9573 73.792 63.4053 70.752 63.4053 66.464C63.4053 62.208 66.9573 59.168 71.5973 59.168ZM71.5973 62.816C69.3253 62.816 67.5973 64.16 67.5973 66.464C67.5973 68.8 69.3253 70.144 71.5973 70.144C73.8693 70.144 75.5973 68.8 75.5973 66.464C75.5973 64.16 73.8693 62.816 71.5973 62.816ZM82.5413 57.184H86.7973V86.912H82.5413V57.184ZM62.7013 80.896L62.1893 77.472C67.4053 77.472 74.6693 77.408 80.9093 76.48L81.2293 79.552C74.7973 80.832 67.8213 80.896 62.7013 80.896ZM94.6348 70.432H115.467V73.824H94.6348V70.432ZM91.5308 80.032H118.347V83.52H91.5308V80.032ZM102.763 71.968H107.019V81.152H102.763V71.968ZM94.6348 59.232H115.243V62.656H98.8908V71.904H94.6348V59.232Z" fill="black"/>
</svg>
