<svg width="10" height="10" viewBox="0 0 10 10" fill="none" xmlns="http://www.w3.org/2000/svg">
<g clip-path="url(#clip0_163_17)">
<path d="M8.2819 3.54183H6.4069C6.29639 3.54183 6.19041 3.49793 6.11227 3.41979C6.03413 3.34165 5.99023 3.23567 5.99023 3.12516C5.99023 3.01466 6.03413 2.90868 6.11227 2.83053C6.19041 2.75239 6.29639 2.7085 6.4069 2.7085H7.86523V1.25016C7.86523 1.13966 7.90913 1.03368 7.98727 0.955535C8.06541 0.877395 8.17139 0.833496 8.2819 0.833496C8.39241 0.833496 8.49839 0.877395 8.57653 0.955535C8.65467 1.03368 8.69857 1.13966 8.69857 1.25016V3.12516C8.69857 3.23567 8.65467 3.34165 8.57653 3.41979C8.49839 3.49793 8.39241 3.54183 8.2819 3.54183Z" fill="#0085FF"/>
<path d="M5.00036 9.16683C4.26882 9.16746 3.55001 8.97549 2.9162 8.61021C2.28239 8.24493 1.75592 7.71923 1.38972 7.08595C1.02352 6.45267 0.830507 5.73414 0.830079 5.0026C0.82965 4.27107 1.02183 3.55231 1.38728 2.9186C1.75274 2.2849 2.27859 1.75857 2.91198 1.39255C3.54536 1.02653 4.26394 0.833719 4.99548 0.833496C5.72701 0.833274 6.44572 1.02565 7.07932 1.39129C7.71293 1.75692 8.2391 2.28293 8.60494 2.91641C8.65669 3.01178 8.66919 3.12356 8.6398 3.22801C8.61041 3.33245 8.54144 3.42131 8.44755 3.47569C8.35366 3.53007 8.24226 3.54568 8.13704 3.5192C8.03182 3.49273 7.94108 3.42625 7.88411 3.33391C7.47883 2.6354 6.83347 2.10801 6.06823 1.84999C5.30299 1.59196 4.47005 1.62089 3.72455 1.93138C2.97905 2.24187 2.37183 2.81275 2.01598 3.5377C1.66014 4.26264 1.57993 5.09222 1.79031 5.8719C2.00068 6.65159 2.48729 7.32823 3.1595 7.77579C3.8317 8.22334 4.64367 8.41131 5.44417 8.30466C6.24467 8.19801 6.97911 7.80403 7.5107 7.1961C8.04229 6.58816 8.33478 5.80773 8.33369 5.00016C8.33369 4.88965 8.37759 4.78367 8.45573 4.70553C8.53387 4.62739 8.63985 4.58349 8.75036 4.58349C8.86087 4.58349 8.96685 4.62739 9.04499 4.70553C9.12313 4.78367 9.16703 4.88965 9.16703 5.00016C9.16581 6.10486 8.72644 7.16396 7.9453 7.9451C7.16416 8.72624 6.10506 9.16561 5.00036 9.16683Z" fill="#0085FF"/>
</g>
<defs>
<clipPath id="clip0_163_17">
<rect width="10" height="10" fill="white"/>
</clipPath>
</defs>
</svg>
